<?xml version="1.0" encoding="utf-8"?>
<!-- Generator: Adobe Illustrator 27.7.0, SVG Export Plug-In . SVG Version: 6.00 Build 0)  -->
<svg version="1.1" id="Layer_1" xmlns="http://www.w3.org/2000/svg" xmlns:xlink="http://www.w3.org/1999/xlink" x="0px" y="0px"
	 viewBox="0 0 1000 1000" style="enable-background:new 0 0 1000 1000;" xml:space="preserve">
<style type="text/css">
	.st0{fill:#7611A6;}
	.st1{clip-path:url(#SVGID_00000176029203960855344560000016558912014280862389_);}
	.st2{clip-path:url(#SVGID_00000116215060174689464580000013159364404662835131_);}
	.st3{clip-path:url(#SVGID_00000078736333364272286450000013345078246995273150_);}
</style>
<g>
	<g>
		<g>
			<path class="st0" d="M234.8,275.2c49.1,0,90.7-40.2,90.7-90.7c0-49.1-41.6-89.2-90.7-89.2c-50.6,0-90.7,40.2-90.7,89.2
				C144.1,235,184.2,275.2,234.8,275.2z"/>
			<path class="st0" d="M276.4,484.8c-17.8-66.9,26.8-144.2,63.9-175.4c-26.8,0-50.6,1.5-75.8,8.9c-49.1,16.4-96.6,46.1-120.4,92.2
				c-26.8,46.1-22.3,110,16.3,150.2c31.2,32.7,80.3,34.2,123.4,25.3c29.7-5.9,68.4-17.8,92.2-38.6
				C331.4,556.2,288.3,527.9,276.4,484.8z"/>
			<path class="st0" d="M410.2,572.5h8.7c28.5-82.5,92.7-148.4,174.2-179V243.9c0-108.5-101.1-212.6-284-171
				c0,0,101.1,16.4,101.1,111.5V572.5z"/>
		</g>
		<g>
			<defs>
				<rect id="SVGID_1_" x="648.1" y="71.5" width="67.5" height="107.4"/>
			</defs>
			<clipPath id="SVGID_00000145047728018860203300000015465786224091917743_">
				<use xlink:href="#SVGID_1_"  style="overflow:visible;"/>
			</clipPath>
			<g style="clip-path:url(#SVGID_00000145047728018860203300000015465786224091917743_);">
				<path class="st0" d="M701.3,178.3c-3.1,0-5.2-1-7.2-3.1l-41.3-41.3c-4.1-4.1-4.1-10.3,0-14.5L694,78.1c4.1-4.1,10.3-4.1,14.4,0
					c4.2,4.1,4.2,10.3,0,14.5l-34.1,34.1l34.1,34.1c4.2,4.1,4.2,10.3,0,14.5C706.4,177.3,704.4,178.3,701.3,178.3z"/>
			</g>
		</g>
		<g>
			<defs>
				<rect id="SVGID_00000043437862363284690960000015831342296652918693_" x="790.7" y="71.5" width="66.7" height="107.4"/>
			</defs>
			<clipPath id="SVGID_00000119822244771713289360000001869940085297941656_">
				<use xlink:href="#SVGID_00000043437862363284690960000015831342296652918693_"  style="overflow:visible;"/>
			</clipPath>
			<g style="clip-path:url(#SVGID_00000119822244771713289360000001869940085297941656_);">
				<path class="st0" d="M804.6,178.3c-3.1,0-5.2-1-7.2-3.1c-4.1-4.2-4.1-10.3,0-14.5l34.1-34.1l-34.1-34.1
					c-4.1-4.1-4.1-10.3,0-14.5c4.2-4.1,10.3-4.1,14.5,0l41.3,41.3c4.1,4.1,4.1,10.3,0,14.5l-41.3,41.3
					C809.8,177.3,807.7,178.3,804.6,178.3z"/>
			</g>
		</g>
		<g>
			<defs>
				<rect id="SVGID_00000044142028764333567940000009960595298566799529_" x="721" y="52.3" width="64.4" height="144.9"/>
			</defs>
			<clipPath id="SVGID_00000151508549086372638450000009308821607614551738_">
				<use xlink:href="#SVGID_00000044142028764333567940000009960595298566799529_"  style="overflow:visible;"/>
			</clipPath>
			<g style="clip-path:url(#SVGID_00000151508549086372638450000009308821607614551738_);">
				<path class="st0" d="M732.3,199c-1,0-2.1,0-3.1-1c-5.2-2.1-8.3-7.2-6.2-13.4l41.3-124c2.1-5.2,7.2-8.3,13.4-6.2
					c5.2,2.1,8.3,7.2,6.2,13.4l-41.3,124C740.5,195.9,736.4,199,732.3,199z"/>
			</g>
		</g>
		<g>
			<g transform="translate(166.401834, 254.806903)">
				<g>
					<path class="st0" d="M519.8,665.5c47.6,1.5,93.7-11.9,133.8-35.7c-116,17.8-208.1-96.6-208.1-242.3c0-119,55-218.6,129.4-242.3
						c-17.8-4.5-35.7-6-55-6c-145.7,0-264.6,117.5-264.6,263.2C255.1,548.1,374.1,665.5,519.8,665.5z M613.4,363.7
						c50.6,0,90.7-40.1,90.7-90.7c0-49.1-40.2-90.7-90.7-90.7c-49.1,0-89.2,41.6-89.2,90.7C524.2,323.6,564.4,363.7,613.4,363.7z"/>
				</g>
			</g>
		</g>
	</g>
	<g>
		<path class="st0" d="M273.8,656.5l8.3,26.9c0.6,2,1.2,4.1,1.2,6.1h-6.9c0-1.5-0.2-2.8-0.6-4.2l-0.8-2.8c-3.8,0.1-5.9,0-8.9,0.7
			l-0.7,2.2c-0.5,1.5-0.9,3-1,4H258c0.1-1.5,0.7-3.6,1.3-5.5l8.9-27.4H273.8z M270.9,664.6c-0.1,4.2-2.5,9.3-3.4,12.7
			c1.5-0.3,4.5-0.3,6.5-0.4C273.4,673.4,270.9,668.5,270.9,664.6z"/>
		<path class="st0" d="M292.1,669.9c2.3-0.5,3.8-0.7,6.8-0.7h2.2c0-7,0-8.4,0-12.5h6.4v32.7H301v-14.9h-0.8c-3.6,0-5.2,0.1-8.1,0.7
			c0,8.7,0,9.6,0,14.2h-6.4v-32.8l6.4,0L292.1,669.9z"/>
		<path class="st0" d="M326.5,656.5l8.3,26.9c0.6,2,1.2,4.1,1.2,6.1h-6.9c0-1.5-0.2-2.8-0.6-4.2l-0.8-2.8c-3.8,0.1-5.9,0-8.9,0.7
			l-0.7,2.2c-0.5,1.5-0.9,3-1,4h-6.5c0.1-1.5,0.7-3.6,1.3-5.5l8.9-27.4H326.5z M323.6,664.6c-0.1,4.2-2.5,9.3-3.4,12.7
			c1.5-0.3,4.5-0.3,6.5-0.4C326.1,673.4,323.7,668.5,323.6,664.6z"/>
		<path class="st0" d="M338.8,667v-1.9c0-3.2-0.1-6.3-0.3-8.5c2-0.2,3.1-0.3,5.6-0.3c7.3,0,10.4,1.8,13.7,6.6
			c2.1,3.2,3.3,7.6,3.3,12.1c0,8.2-4.2,13.9-10.2,14.5c-1.4,0.1-2.6,0.2-4,0.2c-2.1,0-5.4-0.2-8.2-0.2c0-0.8,0-0.8,0.1-3.3
			C338.7,684.9,338.8,675,338.8,667z M346.2,661.4c-0.4,0-0.7,0-1.1,0.1c0,0.6,0,1.4,0,2.2c0,1.6,0,2.1,0,3.8
			c0,7.6-0.1,14.6-0.1,17.1c2.2,0.1,1,0.1,2.5,0.1h0.1c1,0,4.5,0,6.2-3.9c0.5-1.1,0.7-3.4,0.7-4.7c0-9.5-3.6-14.5-7.4-14.5H346.2z"
			/>
		<path class="st0" d="M134,734.9c0,6.8,2.9,10.7,5.5,10.7h0.3c3.1,0,4-1.6,5.2-4.8l6.1,3.4c-1.8,3.9-6.1,6.4-10.8,6.4h-0.1
			c-2.8,0-6-0.6-8.4-3c-3-3.1-4.4-7.3-4.4-12.9c0-6.4,2-10.4,3.3-12.3c1.8-2.7,5.2-5,9.5-5c3.5,0,7.8,1.6,10,5.6l-5.8,3.1
			c-1.2-3.1-2.2-3.6-4.4-3.6C137.3,722.5,134,725.9,134,734.9z"/>
		<path class="st0" d="M160.3,731c2.3-0.5,3.8-0.7,6.8-0.7h2.2c0-7,0-8.4,0-12.5h6.4v32.7h-6.3v-14.9h-0.8c-3.6,0-5.2,0.1-8.1,0.7
			c0,8.7,0,9.6,0,14.2H154v-32.8l6.4,0L160.3,731z"/>
		<path class="st0" d="M203.2,734.5v0.3c0,4.2-0.8,8.1-2,10.4c-1.9,3.7-5.6,5.8-9.7,5.8c-3,0-6.7-1-8.7-3.6c-2.2-2.8-3-6.7-3-11.2
			c0-8.8,1.5-12.7,3.2-15.1c1.6-2.3,5-4,8.8-4.1C195.8,717,203,718.8,203.2,734.5z M191.5,745.9c2,0,3.2-1.5,4-3.5
			c0.7-1.5,1.2-5.3,1.2-7.8v-0.4c0-2.7-0.2-6.4-1.1-8.7c-1-2.6-2.3-3.4-3.8-3.4c-1.6,0-2.6,0.6-3.6,2.4c-1.2,2.1-2,5.4-2,11.4
			c0,2.4,0.3,6.2,1.3,7.8C188.7,745.5,189.7,745.9,191.5,745.9z"/>
		<path class="st0" d="M209,750.5c-1.1-4.3-2.4-26.2-3.5-32.6l5.9-0.7c0.6,4.8,0.7,7.2,0.8,8.8c0.3,6.1,0.2,14.3,0.5,16.7
			c0,0,3-14.9,3.1-16.7c0.5,0,1.3,0.1,2.1,0.1c1,0,2-0.1,2.7-0.5c0.7,5.4,3,17,3,17c0.4-3.5,0.3-10.1,0.7-16c0.1-1.6,0-4.8,0.9-9.5
			l5.6,0.9c-1.3,6.4-3.2,27.9-4,32.4h-6.1c0,0-1.7-9.9-2.5-14.5c-1.2,5.7-3,14.2-3.1,14.5H209z"/>
		<path class="st0" d="M233.4,728.1v-1.9c0-3.2-0.1-6.3-0.3-8.5c2-0.2,3.1-0.3,5.6-0.3c7.3,0,10.4,1.8,13.7,6.6
			c2.1,3.2,3.3,7.6,3.3,12.1c0,8.2-4.2,13.9-10.2,14.5c-1.4,0.1-2.6,0.2-4,0.2c-2.1,0-5.4-0.2-8.2-0.2c0-0.8,0-0.8,0.1-3.3
			C233.3,746,233.4,736.1,233.4,728.1z M240.8,722.5c-0.4,0-0.7,0-1.1,0.1c0,0.6,0,1.4,0,2.2c0,1.6,0,2.1,0,3.8
			c0,7.6-0.1,14.6-0.1,17.1c2.2,0.1,1,0.1,2.5,0.1h0.1c1,0,4.5,0,6.2-3.9c0.5-1.1,0.7-3.4,0.7-4.7c0-9.5-3.6-14.5-7.4-14.5H240.8z"
			/>
		<path class="st0" d="M265.7,731c2.3-0.5,3.8-0.7,6.8-0.7h2.2c0-7,0-8.4,0-12.5h6.4v32.7h-6.3v-14.9h-0.8c-3.6,0-5.2,0.1-8.1,0.7
			c0,8.7,0,9.6,0,14.2h-6.4v-32.8l6.4,0L265.7,731z"/>
		<path class="st0" d="M307.9,717.7c-0.2,1.2-0.2,2.1-0.2,3.2v0.7c0,3.7,0.1,6.9,0.1,9.7v1.5c0,5.9-0.1,11.5-2.9,14.8
			c-2,2.4-5.2,3.1-8.5,3.3c-7.7,0-10.1-4.2-10.5-11.6c-0.1-1.9-0.2-5-0.2-8.4c0-4.4,0.1-9.3,0.2-13.3h6.4c-0.1,4.2-0.2,9.9-0.2,14.6
			v3.5c0,1.6,0,2.9,0.1,3.8c0.3,2.3,0.6,6.1,4.1,6.2c5-0.2,5-5.7,5-12.9c0-3.1-0.1-6.8-0.1-11.1c0-1.8,0.1-3,0.3-4.6L307.9,717.7z"
			/>
		<path class="st0" d="M333.8,745.3c0.4,0.4,1.6,1.3,2.7,1.6l-3,4.8c-1.4-0.2-2.9-1.5-3.8-2.5c-2.4-2.7-6.6-9.3-8-11.7
			c-0.9-0.1-1.8-0.2-2.9-0.7v13.9h-6v-28.2c0-1.7,0-2.9-0.1-4.4c1-0.1,3.9-0.4,5.4-0.4c6.2,0,11.7,0.2,14.7,4c1.2,1.5,1.8,3.8,1.8,6
			c0,5.6-3.1,8.8-6.7,9.3C329.9,739.9,332.5,743.7,333.8,745.3z M320.4,722.6c-0.6,0-0.8,0-1.6,0v8.8c1.6,0.7,3.1,1,4.1,1h0.2
			c4.2,0,4.9-1.9,4.9-4.5C328.1,723.8,325.2,722.6,320.4,722.6z"/>
		<path class="st0" d="M346.1,747.1c0-2.3,0.2-8.8,0.2-11.8c-2-2.8-7.7-12.5-9-15.1l5.4-3.5c1,2,4.7,9.2,6.9,12.7
			c2.4-3.5,5.3-10.8,6.3-13l5.7,3.4c-1.2,2.4-7.4,13.4-9.1,15.9c0,1.2,0,2.4,0,3.8c-0.1,3.4-0.1,6.9-0.1,8v3.2h-6.2V747.1z"/>
	</g>
</g>
</svg>
