<svg xmlns="http://www.w3.org/2000/svg" height="800" width="1200" version="1.1" id="Layer_1" viewBox="-9.3 -15.5 80.6 93"><defs id="defs11354"><style id="style11352" type="text/css">.cls-3{fill:#fff}</style></defs><circle id="circle11356" r="31" cy="31" cx="31" fill="#5c2d91"/><path id="path11358" d="M52.92 9.08a31 31 0 010 43.84L9.08 9.08a31 31 0 0143.84 0z" fill="#633ba3"/><path id="path11360" d="M16.17 37h-1.42v-8.17q0-1 .12-2.37a6.89 6.89 0 01-.36 1.18L10.31 37h-.7l-4.15-9.29a7.92 7.92 0 01-.37-1.25c0 .48.07 1.28.07 2.38V37H3.75V24.82h1.89l3.73 8.49a10.13 10.13 0 01.56 1.46H10c.24-.67.43-1.17.58-1.49l3.81-8.46h1.79z" class="cls-3"/><path id="path11362" d="M24.64 37h-6.31V24.82h1.42V35.7h4.89z" class="cls-3"/><path id="path11364" d="M27.16 37.18a.89.89 0 01-.67-.28.93.93 0 01-.28-.67 1 1 0 01.28-.67.9.9 0 01.67-.29 1 1 0 01.68 1.63.93.93 0 01-.68.28z" class="cls-3"/><path id="path11366" d="M40.1 37h-1.75l-6.27-9.71a3.71 3.71 0 01-.39-.77h-.05a11.79 11.79 0 01.07 1.68V37h-1.43V24.82h1.85l6.1 9.55a8.21 8.21 0 01.49.82 12.23 12.23 0 01-.09-1.8v-8.57h1.47z" class="cls-3"/><path id="path11368" d="M48.7 37h-6.45V24.82h6.18v1.29h-4.75v4.05h4.39v1.28h-4.39v4.26h5z" class="cls-3"/><path id="path11370" d="M58.25 26.11h-3.52V37h-1.42V26.11H49.8v-1.29h8.45z" class="cls-3"/></svg>