<svg id="Capa_1" data-name="Capa 1" xmlns="http://www.w3.org/2000/svg" width="2410" height="300" viewBox="0 0 2410 300"><defs><style>.cls-1{fill:#512bd4;}.cls-2{fill:#72acf1;}</style></defs><title>logo</title><path class="cls-1" d="M977,219h-71.4V88.36H977v8.4H914.72v49.41h58.8v8.4h-58.8v56H977V219Z"/><path class="cls-1" d="M1072.08,219V156q0-14.65-6.17-21.31T1046.79,128q-17.42,0-25.51,8.8t-8.09,28.55V219h-8.85V121.87h7.51l1.7,13.31h0.54q9.47-15.19,33.69-15.19,33.06,0,33.06,35.47V219h-8.76Z"/><path class="cls-1" d="M1137.93,212.92a66.33,66.33,0,0,0,14.65-1.43v7.15a46.89,46.89,0,0,1-14.83,2.14q-12.87,0-19-6.88t-6.12-21.62V129.56h-14.39v-5.18l14.39-4,4.47-22h4.56v23.5h28.5v7.68h-28.5V191q0,11.17,3.93,16.53T1137.93,212.92Z"/><path class="cls-1" d="M1172.33,94.89q0-8.58,5.63-8.58a5,5,0,0,1,4.33,2.23,11,11,0,0,1,1.56,6.34,11.23,11.23,0,0,1-1.56,6.34,4.94,4.94,0,0,1-4.33,2.32Q1172.33,103.55,1172.33,94.89ZM1182.43,219h-8.85V121.87h8.85V219Z"/><path class="cls-1" d="M1240.6,212.92a66.33,66.33,0,0,0,14.65-1.43v7.15a46.89,46.89,0,0,1-14.83,2.14q-12.87,0-19-6.88t-6.12-21.62V129.56h-14.39v-5.18l14.39-4,4.47-22h4.56v23.5h28.5v7.68h-28.5V191q0,11.17,3.93,16.53T1240.6,212.92Z"/><path class="cls-1" d="M1260,121.87h9.11l20.55,54.51q9.38,25.11,11.88,33.87h0.54q3.75-11.53,12.24-34.4l20.55-54H1344l-43.52,112.86q-5.27,13.76-8.85,18.59a23.7,23.7,0,0,1-8.35,7.24A25.46,25.46,0,0,1,1271.7,263a39.85,39.85,0,0,1-11.35-1.88V253.4a41.9,41.9,0,0,0,11.17,1.43,15,15,0,0,0,8-2.14,20,20,0,0,0,6.3-6.66,87.56,87.56,0,0,0,6.52-14.3q3.71-9.79,4.78-12.73Z"/><path class="cls-1" d="M1419.13,219H1410V88.36h71.57v8.4h-62.46v55.4h59v8.49h-59V219Z"/><path class="cls-1" d="M1537.89,120a76.06,76.06,0,0,1,13.22,1.25l-1.7,8.49a51.79,51.79,0,0,0-12.6-1.52q-12.42,0-20.37,10.54t-8,26.63V219h-8.85V121.87h7.51l0.89,17.51h0.63q6-10.72,12.78-15.06T1537.89,120Z"/><path class="cls-1" d="M1629.83,219l-2.23-15.37h-0.71q-7.33,9.38-15.06,13.27a40.23,40.23,0,0,1-18.27,3.89q-14.3,0-22.25-7.33t-8-20.28q0-14.21,11.84-22.07t34.27-8.31l18.5-.54v-6.43q0-13.85-5.63-20.91t-18.14-7.06q-13.49,0-28,7.51l-3.31-7.68a74,74,0,0,1,31.63-7.51q16,0,23.9,8.31t7.91,25.91V219h-6.52Zm-35.74-6.25q15.55,0,24.53-8.89t9-24.71v-9.56l-17,.71q-20.46,1-29.17,6.39t-8.71,16.84q0,9.11,5.58,14.16T1594.09,212.75Z"/><path class="cls-1" d="M1789.16,219V155.29q0-14.21-5.54-20.73t-17-6.52q-14.92,0-22.07,8.22t-7.15,25.82V219h-9V152.61q0-24.57-22.52-24.57-15.28,0-22.25,8.89t-7,28.46V219h-8.85V121.87h7.33l1.88,13.31h0.54A27.84,27.84,0,0,1,1689,124a34.06,34.06,0,0,1,16.35-4q23,0,29.49,17.25h0.36a33,33,0,0,1,12.73-12.78A36.64,36.64,0,0,1,1766.1,120q15.9,0,23.86,8.49t8,27V219h-8.76Z"/><path class="cls-1" d="M1868.59,220.79q-21.18,0-33-13t-11.84-36.55q0-23.23,11.44-37.22T1866,120q17.16,0,27.07,12t9.92,32.53v7.15h-70q0.18,20,9.34,30.56t26.23,10.54a81.31,81.31,0,0,0,14.61-1.16,88.67,88.67,0,0,0,15.95-5v8a71.07,71.07,0,0,1-15.19,4.87A84.36,84.36,0,0,1,1868.59,220.79ZM1866,127.86q-14,0-22.52,9.25t-9.92,26.67h60q0-16.89-7.33-26.4T1866,127.86Z"/><path class="cls-1" d="M2007.45,219l-21.27-65q-2.06-6.61-5.27-19.39h-0.54l-1.88,6.61-4,13L1952.85,219h-8.76l-27.79-97.13h9.47l15.55,56.29q5.45,20.91,7.15,30.74H1949q5.27-20.91,7.68-27.79l20-59.24h8l19,59.06q6.43,21,7.86,27.79h0.54q0.71-5.81,7.15-31.1l14.83-55.76h8.94L2016.74,219h-9.29Z"/><path class="cls-1" d="M2142.47,170.3q0,23.77-11.53,37.13t-31.81,13.36a41.19,41.19,0,0,1-22.52-6.17,39.43,39.43,0,0,1-14.92-17.69q-5.18-11.53-5.18-26.63,0-23.77,11.53-37T2099.67,120q20,0,31.41,13.45T2142.47,170.3Zm-76.67,0q0,20,8.8,31.23t24.89,11.21q16.08,0,24.89-11.21t8.8-31.23q0-20.1-8.89-31.19t-25-11.08q-16.08,0-24.8,11T2065.8,170.3Z"/><path class="cls-1" d="M2207.61,120a76.06,76.06,0,0,1,13.22,1.25l-1.7,8.49a51.79,51.79,0,0,0-12.6-1.52q-12.42,0-20.37,10.54t-8,26.63V219h-8.85V121.87h7.51l0.89,17.51h0.63q6-10.72,12.78-15.06T2207.61,120Z"/><path class="cls-1" d="M2249.25,176.38l49.59-54.51h10.72l-38.24,41.46L2312.87,219h-10.63l-36.9-49.06-15.91,14.48V219h-8.85V80h8.85v69.7l-0.63,26.72h0.45Z"/></svg>